<svg xmlns="http://www.w3.org/2000/svg" width="175" height="34" viewBox="0 0 211 41"><defs/><g fill="none" fill-rule="evenodd"><path fill="#005F56" d="M75.293 26.515V15.772h-2.987a1.41 1.41 0 01-1.398-1.398 1.41 1.41 0 011.398-1.399h9.12a1.41 1.41 0 011.399 1.399 1.41 1.41 0 01-1.399 1.398h-2.955v10.743a1.41 1.41 0 01-1.398 1.398h-.413a1.384 1.384 0 01-1.367-1.398m18.336-8.74c0-1.24-.953-2.003-2.225-2.003h-3.368v4.037h3.368c1.272 0 2.225-.763 2.225-2.034m-.763 9.344l-2.478-4.513h-2.32v3.75c0 .858-.7 1.557-1.557 1.557h-.064a1.56 1.56 0 01-1.557-1.557v-13.38h6.991c3.114 0 5.053 2.033 5.053 4.83 0 2.607-1.685 4.037-3.305 4.418l1.97 3.306c.636 1.048-.127 2.352-1.335 2.352-.572.031-1.112-.286-1.398-.763m12.616-10.965l-2.32 6.42h4.64l-2.32-6.42zm3.75 10.742l-.573-1.493h-6.387l-.572 1.493c-.222.636-.794 1.017-1.462 1.017h-.222c-1.08 0-1.875-1.112-1.462-2.13l4.227-10.964c.445-1.113 1.493-1.875 2.732-1.875 1.208 0 2.288.762 2.733 1.875l4.227 10.965c.381 1.049-.35 2.13-1.462 2.13h-.223c-.73 0-1.334-.382-1.557-1.018zm14.998.064l-6.45-8.804v8.168c0 .89-.7 1.59-1.59 1.59-.89 0-1.588-.7-1.588-1.59V15.01c0-1.112.921-2.034 2.033-2.034.763 0 1.494.35 1.97.986l6.197 8.39v-7.786c0-.89.7-1.59 1.589-1.59.89 0 1.589.7 1.589 1.59v11.441a1.912 1.912 0 01-1.907 1.907c-.73-.031-1.398-.35-1.843-.953m6.483-2.544c.476-.699 1.398-.826 2.097-.381a6.405 6.405 0 003.59 1.08c1.749 0 2.607-.762 2.607-1.652 0-2.606-8.612-.763-8.612-6.389 0-2.479 2.16-4.576 5.688-4.576 1.716 0 3.21.35 4.48 1.08.763.445.986 1.462.477 2.162a1.487 1.487 0 01-1.906.413c-1.017-.604-2.161-.858-3.305-.858-1.335 0-2.097.572-2.097 1.462 0 2.351 8.58.762 8.58 6.356 0 2.733-1.97 4.8-5.975 4.8-2.16 0-3.845-.54-5.148-1.4-.794-.444-.985-1.398-.476-2.097m13.664 2.098v-13.54h9.183a1.41 1.41 0 011.399 1.399 1.41 1.41 0 01-1.399 1.398h-5.974v3.147h2.987a1.41 1.41 0 011.399 1.398 1.41 1.41 0 01-1.399 1.399h-2.987v4.799a1.41 1.41 0 01-1.398 1.398h-.381c-.795 0-1.43-.604-1.43-1.398m12.774 1.398V12.975h9.184a1.41 1.41 0 011.398 1.399 1.41 1.41 0 01-1.398 1.398h-5.974v3.147h2.987a1.41 1.41 0 011.398 1.398 1.41 1.41 0 01-1.398 1.399h-2.987v3.4h5.974a1.41 1.41 0 011.398 1.399 1.41 1.41 0 01-1.398 1.398h-9.184zm13.061 0V12.975h9.183a1.41 1.41 0 011.398 1.399 1.41 1.41 0 01-1.398 1.398h-5.974v3.147h2.987a1.41 1.41 0 011.398 1.398 1.41 1.41 0 01-1.398 1.399h-2.987v3.4h5.974a1.41 1.41 0 011.398 1.399 1.41 1.41 0 01-1.398 1.398h-9.183zm21.831-10.138c0-1.24-.954-2.003-2.225-2.003h-3.368v4.037h3.368c1.271 0 2.225-.763 2.225-2.034m-.763 9.344l-2.479-4.513h-2.32v3.75a1.56 1.56 0 01-1.557 1.557h-.063a1.56 1.56 0 01-1.557-1.557v-13.38h6.99c3.115 0 5.053 2.033 5.053 4.83 0 2.607-1.684 4.037-3.304 4.418l1.97 3.306c.635 1.048-.127 2.352-1.335 2.352-.604.031-1.112-.286-1.398-.763m12.584-10.965l-2.32 6.42h4.671l-2.351-6.42zm3.781 10.742l-.572-1.493h-6.387l-.572 1.493c-.223.636-.795 1.017-1.462 1.017h-.286c-1.08 0-1.875-1.112-1.462-2.13l4.227-10.964c.445-1.113 1.493-1.875 2.733-1.875 1.207 0 2.288.762 2.732 1.875l4.227 10.965c.381 1.049-.35 2.13-1.462 2.13h-.222c-.668 0-1.271-.382-1.494-1.018z"/><path fill="#1EBFAE" d="M23.801 38.537V7.15h-4.767v31.386a2.4 2.4 0 002.384 2.384 2.38 2.38 0 002.383-2.384m28.599.001v-27.81h-4.766v27.81a2.4 2.4 0 002.383 2.384 2.38 2.38 0 002.383-2.384m-14.3-8.232v8.232a2.4 2.4 0 002.384 2.384 2.4 2.4 0 002.383-2.384v-4.863a3.979 3.979 0 00-3.177-3.91c-.255-.063-1.59-.388-1.59.541m-23.832-3.941V7.151H9.5v18.64c1.59.16 3.178.35 4.767.573m-4.766 4.915v7.258a2.4 2.4 0 002.384 2.384 2.4 2.4 0 002.383-2.384v-3.921a3.993 3.993 0 00-3.56-3.973c-.158-.032-1.207-.061-1.207.636"/><path fill="#1EBFAE" d="M14.268 7.151a2.4 2.4 0 012.383-2.384 2.4 2.4 0 012.383 2.384h4.767c0-3.94-3.21-7.151-7.15-7.151-3.94 0-7.15 3.21-7.15 7.151h4.767zm28.599 3.576a2.4 2.4 0 012.384-2.384 2.4 2.4 0 012.383 2.384H52.4c0-3.941-3.209-7.151-7.15-7.151-3.94 0-7.15 3.21-7.15 7.15h4.767zM51.13 23.98v4.8c3.272.444 6.514.985 9.723 1.62.54.096 1.049-.317 1.049-.858 0-2.225-1.62-4.132-3.813-4.513a228.275 228.275 0 00-6.96-1.049m-34.287-.445A157.762 157.762 0 001.239 25.92 1.562 1.562 0 000 27.445c0 1.843 1.716 3.241 3.527 2.86a148.71 148.71 0 0111.281-1.78 3.343 3.343 0 002.987-3.337v-.795c-.032-.508-.445-.921-.953-.858m15.126-.763c-3.146 0-6.292.096-9.406.287v4.767a154.117 154.117 0 0120.21.095c1.938.16 3.59-1.398 3.59-3.369v-.35c0-.444-.349-.826-.762-.857-4.512-.35-9.056-.573-13.632-.573"/><path fill="#1EBFAE" d="M17.763 7.376a1.04 1.04 0 00-1.699-.803l-.015.013-.006.005a1.576 1.576 0 00-.154 2.29c.269.293.538.574.808.845a.625.625 0 001.066-.442V7.376zm28.063 3.078c-.5-.643-1.405-.8-2.095-.366-3.164 1.993-12.116 6.47-21.2.379v3.715c3.453 1.885 6.828 2.525 9.815 2.525 1.454 0 2.817-.15 4.052-.383 4.04-.761 7.265-2.462 9.02-3.553a1.582 1.582 0 00.408-2.317"/><path fill="#1EBFAE" d="M42.867 12.703v-1.976h-4.766v3.628a22.659 22.659 0 004.766-1.652M38.1 19.947v4.637c1.621.318 3.21.636 4.767.985v-8.396c0-.493-.49-.83-.953-.662a26.04 26.04 0 01-1.609.527 3.037 3.037 0 00-2.204 2.909m4.524-16.371h5.232A4.534 4.534 0 0152.39 8.11v2.617h-3.657L45.24 6.455l-3.658 4.272H38.09V8.11a4.534 4.534 0 014.534-4.534M14.025 0h5.232a4.534 4.534 0 014.534 4.535V7.15h-3.658l-3.492-4.27-3.658 4.27H9.491V4.535A4.534 4.534 0 0114.025 0"/></g></svg>